<svg xmlns="http://www.w3.org/2000/svg" viewBox="0 0 173.66 213.72"><defs><style>.cls-1{fill:#fff;}</style></defs><title>Artboard 11</title><g id="other"><path class="cls-1" d="M124.75,49.26a22.74,22.74,0,0,0-3.83-14.53c-1.92-3.17-9-10.25-11.5-12.25S96.26,12.88,94.25,8.31A7.11,7.11,0,0,1,96,0c-5,2.15-8.31,8.4-8.31,8.4l3.25,12,20.64,29.1Z"/><path class="cls-1" d="M77,18.38C78.67,13,86.67-.06,96,0,89,5.63,90.23,8.94,91.61,12.38S109,31.06,110.86,36.9s1.73,10.57,1,12.36-26.75,1-26.75,1Z"/><path class="cls-1" d="M88.42,48.66c1.93-5.42,1.58-10.35,0-15.85s-4.93-10.91-8.59-14a35.32,35.32,0,0,0-9-5.62c1.48,3.16,2.63,16.44,1.69,22.31s-2.37,12.06.44,12.88,13,.64,14.09.85A1.28,1.28,0,0,0,88.42,48.66Z"/><path class="cls-1" d="M49.42,48.66c-1.5-8.85,3.5-13,8.12-16.1s12.73-6.85,13.88-12.62c.75-3.75-.25-4.75-.63-6.75,3.25,1.87,8,8.9,8.63,13a35.18,35.18,0,0,1-1,15.25c-1.31,4.37-1.5,5.31-3.5,7.22S49.42,48.66,49.42,48.66Z"/><polyline class="cls-1" points="88.4 111.97 88.4 197.75 80.05 200.68 78.05 111.97"/><path class="cls-1" d="M75.55,205.57c0-4.44,5.79-8.06,12.94-8.06v16.13C81.34,213.64,75.55,210,75.55,205.57Z"/><polygon class="cls-1" points="88.39 186.13 75.18 186.13 78.39 189.63 88.39 189.63 88.39 186.13"/><polygon class="cls-1" points="88.4 97.64 88.4 111.97 75.3 111.97 72.8 97.64 88.4 97.64"/><polygon class="cls-1" points="88.4 93.97 88.4 97.64 69.88 97.64 66.72 93.97 88.4 93.97"/><polyline class="cls-1" points="88.4 89.09 88.4 93.97 64.47 93.97 64.47 92.03 66.34 92.05 66.41 89.09 68.03 89.09"/><polygon class="cls-1" points="88.4 81.09 88.4 89.09 68.03 89.09 65.97 81.09 88.4 81.09"/><polygon class="cls-1" points="88.4 75.66 88.4 81.09 61.47 81.09 59.53 75.66 88.4 75.66"/><polygon class="cls-1" points="88.42 69.34 88.42 76.66 56.48 76.66 55.05 69.34 88.42 69.34"/><polyline class="cls-1" points="49.9 58.91 88.4 58.91 88.4 69.34 52.59 69.34 49.9 59.09"/><polygon class="cls-1" points="43.55 48.66 88.42 48.66 88.42 58.91 49.92 58.91 43.55 48.66"/><polyline class="cls-1" points="88.39 111.98 88.39 197.77 96.75 200.69 98.75 111.98"/><path class="cls-1" d="M101.33,205.57c0-4.44-5.79-8.06-12.94-8.06v16.13C95.54,213.64,101.33,210,101.33,205.57Z"/><polygon class="cls-1" points="88.39 186.13 101.61 186.13 98.39 189.63 88.39 189.63 88.39 186.13"/><polygon class="cls-1" points="88.41 97.64 88.41 111.97 101.51 111.97 104.01 97.64 88.41 97.64"/><polygon class="cls-1" points="88.4 93.97 88.4 97.64 106.92 97.64 110.09 93.97 88.4 93.97"/><polyline class="cls-1" points="88.4 89.09 88.4 93.97 112.34 93.97 112.34 92.03 110.46 92.05 110.4 89.09 108.78 89.09"/><polygon class="cls-1" points="88.4 81.09 88.4 89.09 108.78 89.09 110.84 81.09 88.4 81.09"/><polygon class="cls-1" points="88.4 75.66 88.4 81.09 115.34 81.09 117.28 75.66 88.4 75.66"/><polygon class="cls-1" points="88.42 69.34 88.42 76.66 120.36 76.66 121.8 69.34 88.42 69.34"/><polyline class="cls-1" points="126.9 58.91 88.41 58.91 88.4 69.34 124.22 69.34 126.9 59.09"/><polygon class="cls-1" points="133.29 48.66 88.42 48.66 88.42 58.91 126.92 58.91 133.29 48.66"/><path class="cls-1" d="M3,102.07c0-9.94,7-18,15.67-18a11.43,11.43,0,0,1,1.32.07c1.43,7.35,1.51,4.59,1.51,14,0,4.33-1.5,5.25-4.08,6.83C12,108.91,10.24,107.44,5,110.87A20,20,0,0,1,3,102.07Z"/><polyline class="cls-1" points="20 101.24 86 137.57 78.92 136.16 4.92 110.82 20 101.24"/><polyline class="cls-1" points="84 134.41 86 137.57 20 101.24 20 84.07"/><path class="cls-1" d="M174,102.15c0-9.94-7-18-15.66-18-.45,0-.89,0-1.33.06-1.42,7.35-1.51,4.59-1.51,14,0,4.33,1.5,5.25,4.09,6.83,5.41,3.92,7.17,2.46,12.42,5.88A20,20,0,0,0,174,102.15Z"/><polyline class="cls-1" points="157 101.31 91 137.65 98.09 136.23 172.09 110.9 157 101.31"/><polyline class="cls-1" points="93 134.48 91 137.65 157 101.31 157 84.15"/><path class="cls-1" d="M2.84,175.73c0,9.94,7,18,15.66,18,.45,0,.89,0,1.33-.06,1.42-7.36,1.51-4.59,1.51-14,0-4.34-1.5-5.25-4.09-6.84-5.41-3.91-7.17-2.45-12.42-5.87A20,20,0,0,0,2.84,175.73Z"/><polyline class="cls-1" points="19.84 176.56 85.84 140.23 78.75 141.65 4.75 166.98 19.84 176.56"/><polyline class="cls-1" points="83.84 143.4 85.84 140.23 19.84 176.56 19.84 193.73"/><path class="cls-1" d="M173.84,175.66c0,9.94-7,18-15.67,18a11.43,11.43,0,0,1-1.32-.07c-1.43-7.35-1.51-4.59-1.51-14,0-4.33,1.5-5.25,4.08-6.83,5.42-3.92,7.18-2.45,12.42-5.88A20,20,0,0,1,173.84,175.66Z"/><polyline class="cls-1" points="156.84 176.49 90.84 140.16 97.92 141.57 171.92 166.91 156.84 176.49"/><polyline class="cls-1" points="92.84 143.32 90.84 140.16 156.84 176.49 156.84 193.66"/><polyline id="right-2" data-name="right" class="cls-1" points="88.25 99.11 132.5 163.48 97.31 163.48 97.52 154.48 114.94 154.26 88.25 115.98"/><polyline id="left-2" data-name="left" class="cls-1" points="88.42 99.11 44.17 163.48 79.14 163.48 78.94 154.48 61.73 154.26 88.42 115.98"/></g></svg>